<svg class="undeground-scheme" width=300 height=220>
                <!-- 1 линия - героическая -->
                <g class="all"  transform="scale(0.3)">

                
                <g class="line heroic">
                    <path d="M260,680 L770 225" stroke="#4b5484" stroke-width="20" fill="transparent" />
                    <!-- <rect x="757" y="185" width="26" height="26" fill="#4b5484" rx="10"></rect>
                    <text class="text_num" x="763" y="206">1</text> -->
                </g>
                <!-- ///1 линия - героическая -->


                <!-- 2 линия - психологическая -->
                <g class="line psychological">
                    <path d="M44 575 Q500,530 530 105" stroke-width="20" stroke="#46cca6" fill="transparent" />
                    <!-- <rect x="757" y="185" width="26" height="26" fill="#4b5484" rx="10"></rect>
                <text class="text_num" x="763" y="206">1</text> -->
                </g>
                <!-- ///2 линия - психологическая -->


                <!-- 3 линия - естественно-научная -->
                <g class="line naturalscience">
                    <path d="M735 500 V 400 Q735 360 775 360 H 860 Q900 360 900 320 V 145 Q900 105 860 105 H 519"
                        stroke="#aed088" stroke-width="20" fill="transparent" />
                </g>
                <!-- ///3 линия - естественно-научная -->


                <!-- 4 линия - детективная -->
                <g class="line detective">
                    <!-- <rect x="967" y="460" width="26" height="26" fill="#f9bd53" rx="10"></rect>
                    <text class="text_num" x="974" y="481">4</text> -->

                    <path d="M415 680 L 565 545 Q615 500 665 500 H 980" stroke-width="20" stroke="#f9bd53"
                        fill="transparent" />
                </g>
                <!-- ///4 линия - детективная -->


                <!-- 5 линия - историческая -->
                <g class="line historical">
                    <!-- <rect x="589" y="667" width="26" height="26" fill="#9e4153" rx="10"></rect>
                    <text class="text_num" x="596" y="688">5</text> -->

                    <path d="M310 295 H 260 Q44,295 44 485 V 580 Q44,680 200 680 H 570" stroke="#9e4153"
                        stroke-width="20" fill="transparent" />
                </g>
                <!-- ///5 линия - историческая -->


                <!-- 6 линия - сентиментальная -->
                <g class="line sentimental">
                    <path d="M44 48 H 235 C 270 48, 310 78, 310 120 V 280 C 310 340,  275 370, 240 370 H 220"
                        stroke="#ff9d8d" stroke-width="20" fill="transparent" />
                </g>
                <!-- ///6 линия - сентиментальная -->


                <!-- 7 линия - социально-философская -->
                <g class="line social">
                    <path d="M44 140 H 455" stroke="#2b6e70" stroke-width="20" fill="transparent" />
                </g>
                <!-- ///7 линия - социально-философская -->


                <!-- 8 линия - фантастическая -->
                <g class="line fantastic">
                    <path
                        d="M400,230 H 80 Q44,230 44 285 V 310 Q44,355 80,355 H 117 Q153,355 153 390 V 405 Q153,440 188 440 H 295"
                        stroke-width="20" stroke="#d25488" fill="transparent" />
                </g>
                <!-- ///8 линия - фантастическая -->
            

            </g>
            </svg>