<svg class="undeground-scheme" width=1100 height=900>
    <!-- 1 линия - героическая -->
    <path d="M260,680 L770 225" stroke="#4b5484" stroke-width="8" fill="transparent" />
    <g class="greentent">
        <circle cx="770" cy="225" r="9" stroke="#fff" stroke-width="2" fill="#4b5484"></circle>
        <text class="text_book" x="785" y="230">Зеленый</text>
        <text class="text_book" x="785" y="245">шатер</text>
        <text class="text_author" x="785" y="258">Л.Е.Улицкая</text>
    </g>
    <g class="solzhenitsyn">
        <circle cx="683" cy="303" r="9" stroke="#fff" stroke-width="2" fill="#4b5484"></circle>
        <text class="text_book" x="698" y="308">Один день</text>
        <text class="text_book" x="698" y="323">Ивана Денисовича</text>
        <text class="text_author" x="698" y="336">А.И.Солженицын</text>
    </g>
    <g class="nekrasov">
        <circle cx="599" cy="378" r="9" stroke="#fff" stroke-width="2" fill="#4b5484"></circle>
        <text class="text_book" x="614" y="383">В окопах</text>
        <text class="text_book" x="614" y="398">Сталинграда</text>
        <text class="text_author" x="614" y="411">В.П.Некрасов</text>
    </g>
    <g class="fadeev">
        <circle cx="514" cy="453" r="9" stroke="#fff" stroke-width="2" fill="#4b5484"></circle>
        <text class="text_book" x="529" y="458">Молодая гвардия</text>
        <text class="text_author" x="529" y="471">А.А.Фадеев</text>
    </g>
    <g class="ostrovsky">
        <circle cx="431" cy="527" r="9" stroke="#fff" stroke-width="2" fill="#4b5484"></circle>
        <text class="text_book" x="446" y="532">Как закалялась</text>
        <text class="text_book" x="446" y="547">сталь</text>
        <text class="text_author" x="446" y="560">Н.А.Островский</text>
    </g>
    <g class="bunin">
        <circle cx="348" cy="602" r="9" stroke="#fff" stroke-width="2" fill="#4b5484"></circle>
        <text class="text_book" x="363" y="607">Окаянные дни</text>
        <text class="text_author" x="363" y="620">И.А.Бунин</text>
    </g>

    <!-- ///1 линия - героическая -->


    <!-- 2 линия - психологическая -->
    <path d="M44 575 Q500,530 530 105" stroke-width="8" stroke="#46cca6" fill="transparent" />
    <g class="behterev">
        <circle cx="530" cy="105" r="9" stroke="#fff" stroke-width="2" fill="#46cca6"></circle>
        <text class="text_book" x="537" y="125">Феномены</text>
        <text class="text_book" x="537" y="140">мозга</text>
        <text class="text_author" x="537" y="153">В.М.Бехтерев</text>
    </g>
    <g class="naydenova">
        <circle cx="512" cy="220" r="9" stroke="#fff" stroke-width="2" fill="#46cca6"></circle>
        <text class="text_book" x="522" y="225">Дорога в подсознание</text>
        <text class="text_author" x="522" y="238">О.П.Найденова</text>
    </g>
    <g class="dispenza">
        <circle cx="473" cy="328" r="9" stroke="#fff" stroke-width="2" fill="#46cca6"></circle>
        <text class="text_book" x="485" y="333">Развивай свой мозг</text>
        <text class="text_author" x="485" y="346">Д.Диспенза</text>
    </g>
    <g class="labkobvsky">
        <circle cx="398" cy="431" r="9" stroke="#fff" stroke-width="2" fill="#46cca6"></circle>
        <text class="text_book" x="412" y="436">Хочу и буду</text>
        <text class="text_author" x="412" y="449">М.А.Лабковский</text>
    </g>
    <g class="kotter">
        <circle cx="297" cy="505" r="9" stroke="#fff" stroke-width="2" fill="#46cca6"></circle>
        <text class="text_book" x="313" y="512">Лидерство</text>
        <text class="text_book" x="313" y="527">Мацуситы</text>
        <text class="text_author" x="313" y="540">Д.Коттер</text>
    </g>
    <g class="paum">
        <circle cx="170" cy="553" r="9" stroke="#fff" stroke-width="2" fill="#46cca6"></circle>
        <text class="text_book" x="186" y="567">Последняя</text>
        <text class="text_book" x="186" y="582">лекция</text>
        <text class="text_author" x="186" y="595">Р.Паум</text>
    </g>

    <!-- ///2 линия - психологическая -->


    <!-- 3 линия - естественно-научная -->
    <path d="M735 500 V 400 Q735 360 775 360 H 860 Q900 360 900 320 V 145 Q900 105 860 105 H 530" stroke="#aed088"
        stroke-width="8" fill="transparent" />
    <g class="kukotskyenigma">
        <circle cx="735" cy="440" r="9" stroke="#fff" stroke-width="2" fill="#aed088"></circle>
        <text class="text_book" x="747" y="445">Казус Кукоцкого</text>
        <text class="text_author" x="747" y="458">Л.Е.Улицкая</text>
    </g>
    <g class="pasternak">
        <circle cx="810" cy="360" r="9" stroke="#fff" stroke-width="2" fill="#aed088"></circle>
        <text class="text_book" x="757" y="381">Доктор Живаго</text>
        <text class="text_author" x="772" y="394">Б.П.Пастернак</text>
    </g>
    <g class="yalom">
        <circle cx="900" cy="303" r="9" stroke="#fff" stroke-width="2" fill="#aed088"></circle>
        <text class="text_book" x="912" y="308">Лжец на кушетке</text>
        <text class="text_author" x="912" y="323">И.Ялом</text>
    </g>
    <g class="hailey">
        <circle cx="900" cy="225" r="9" stroke="#fff" stroke-width="2" fill="#aed088"></circle>
        <text class="text_book" x="912" y="230">Аэропорт</text>
        <text class="text_author" x="912" y="243">А.Хейли</text>
    </g>
    <g class="koontz">
        <circle cx="900" cy="150" r="9" stroke="#fff" stroke-width="2" fill="#aed088"></circle>
        <text class="text_book" x="912" y="155">Ложная память</text>
        <text class="text_author" x="912" y="168">Д.Кунц</text>
    </g>
    <g class="granin">
        <circle cx="810" cy="105" r="9" stroke="#fff" stroke-width="2" fill="#aed088"></circle>
        <text class="text_book" x="794" y="125">Зубр</text>
        <text class="text_author" x="780" y="138">Д.А.Гранин</text>
    </g>
    <g class="kronin">
        <circle cx="700" cy="105" r="9" stroke="#fff" stroke-width="2" fill="#aed088"></circle>
        <text class="text_book" x="667" y="125">Цитадель</text>
        <text class="text_author" x="674" y="138">А.Кронин</text>
    </g>
    <!-- ///3 линия - естественно-научная -->


    <!-- 4 линия - детективная -->
    <!-- M415 680 L 535 572 Q585 527 635 527 H 950 -->
    <path d="M415 680 L 565 545 Q615 500 665 500 H 980" stroke-width="8" stroke="#f9bd53" fill="transparent" />
    <g class="christie">
        <circle cx="481" cy="620" r="9" stroke="#fff" stroke-width="2" fill="#f9bd53"></circle>
        <text class="text_book" x="497" y="625">Убийство в Восточном</text>
        <text class="text_book" x="497" y="640">экспрессе, Десять негритят</text>
        <text class="text_author" x="497" y="653">А.Кристи</text>
    </g>
    <g class="nesbe">
        <circle cx="547" cy="560" r="9" stroke="#fff" stroke-width="2" fill="#f9bd53"></circle>
        <text class="text_book" x="563" y="565">Охотники</text>
        <text class="text_book" x="563" y="580">за головами</text>
        <text class="text_author" x="563" y="593">Ю.Несбё</text>
    </g>
    <g class="akunin">
        <circle cx="655" cy="500" r="9" stroke="#fff" stroke-width="2" fill="#f9bd53"></circle>
        <text class="text_book" x="627" y="522">Азазель</text>
        <text class="text_author" x="630" y="535">Б.Акунин</text>
    </g>
    <g class="eco">
        <circle cx="735" cy="500" r="9" stroke="#fff" stroke-width="2" fill="#f9bd53"></circle>
        <text class="text_book" x="703" y="522">Имя розы</text>
        <text class="text_author" x="718" y="535">У.Эко</text>
    </g>
    <g class="harris">
        <circle cx="850" cy="500" r="9" stroke="#fff" stroke-width="2" fill="#f9bd53"></circle>
        <text class="text_book" x="797" y="522">Молчание ягнят</text>
        <text class="text_author" x="825" y="535">Т.Харрис</text>
    </g>
    <g class="brown">
        <circle cx="980" cy="500" r="9" stroke="#fff" stroke-width="2" fill="#f9bd53"></circle>
        <text class="text_book" x="935" y="522">Код да Винчи</text>
        <text class="text_author" x="958" y="535">Д.Браун</text>
    </g>

    <!-- ///4 линия - детективная -->


    <!-- 5 линия - историческая -->
    <!-- d="M310 295 H 225 Q44,295 44 485"    Q44,660 260 660-->
    <path d="M310 295 H 260 Q44,295 44 485 V 580 Q44,680 200 680 H 570" stroke="#9e4153" stroke-width="8"
        fill="transparent" />

    <g class="shakespeare">
        <circle cx="214" cy="297" r="9" stroke="#fff" stroke-width="2" fill="#9e4153"></circle>
        <text class="text_book" x="180" y="320">Ричард III</text>
        <text class="text_author" x="183" y="333">У.Шекспир</text>
    </g>
    <g class="vodolazkin">
        <circle cx="44" cy="490" r="9" stroke="#fff" stroke-width="2" fill="#9e4153"></circle>
        <text class="text_book" x="58" y="495">Авиатор</text>
        <text class="text_author" x="58" y="508">Е.Г.Водолазкин</text>
    </g>
    <g class="redfield">
        <circle cx="44" cy="575" r="9" stroke="#fff" stroke-width="2" fill="#9e4153"></circle>
        <text class="text_book" x="55" y="591">Селестинские</text>
        <text class="text_book" x="58" y="606">пророчества</text>
        <text class="text_author" x="67" y="619">Дж.Редфилд</text>
    </g>
    <g class="dostoevsky">
        <circle cx="260" cy="680" r="9" stroke="#fff" stroke-width="2" fill="#9e4153"></circle>
        <text class="text_book" x="190" y="701">Братья Карамазовы</text>
        <text class="text_author" x="208" y="714">Ф.М.Достоевский</text>
    </g>
    <g class="roberts">
        <circle cx="415" cy="680" r="9" stroke="#fff" stroke-width="2" fill="#9e4153"></circle>
        <text class="text_book" x="379" y="701">Шантарам</text>
        <text class="text_author" x="383" y="714">Г.Д.Робертс</text>
    </g>
    <g class="voynich">
        <circle cx="570" cy="680" r="9" stroke="#fff" stroke-width="2" fill="#9e4153"></circle>
        <text class="text_book" x="552" y="701">Овод</text>
        <text class="text_author" x="540" y="714">Э.Л.Войнич</text>
    </g>
    <!-- ///5 линия - историческая -->


    <!-- 6 линия - сентиментальная -->
    <path d="M44 48 H 235 C 270 48, 310 78, 310 120 V 280 C 310 340,  275 370, 240 370 H 220" stroke="#ff9d8d"
        stroke-width="8" fill="transparent" />

    <g class="mitchell">
        <circle cx="44" cy="48" r="9" stroke="#fff" stroke-width="2" fill='#ff9d8d'></circle>
        <text class="text_book" x="6" y="67">Унесенные</text>
        <text class="text_book" x="20" y="82">ветром</text>
        <text class="text_author" x="15" y="95">М.Митчелл</text>
    </g>
    <g class="ostin">
        <circle cx="170" cy="48" r="9" stroke="#fff" stroke-width="2" fill='#ff9d8d'></circle>
        <g class="book">
            <text class="text_book" x="133" y="67">Гордость и</text>
            <text class="text_book" x="114" y="82">предубеждение</text>
            <text class="text_author" x="146" y="95">Д.Остин</text>
        </g>
    </g>
    <g class="mccullough">
        <circle cx="285" cy="67" r="9" stroke="#fff" stroke-width="2" fill='#ff9d8d'></circle>
        <text class="text_book" x="305" y="67">Поющие в терновнике</text>
        <text class="text_author" x="305" y="80">К.Маккалоу</text>
    </g>
    <!-- <g class="gilbert way-station">
                <circle cx="310" cy="140" r="9" stroke="#fff" stroke-width="2" fill='#ff9d8d'></circle>
                <text class="text_book" x="322" y="162">Есть.</text>
                <text class="text_book" x="322" y="177">Молиться.</text>
                <text class="text_book" x="322" y="192">Любить.</text>
                <text class="text_author" x="322" y="205">Э.Гилберт</text>
            </g> -->

    <g class="dumas">
        <circle cx="310" cy="295" r="9" stroke="#fff" stroke-width="2" fill='#ff9d8d'></circle>
        <text class="text_book" x="322" y="300">Королева Марго</text>
        <text class="text_author" x="322" y="313">А.Дюма</text>
    </g>
    <g class="remarque">
        <circle cx="220" cy="370" r="9" stroke="#fff" stroke-width="2" fill='#ff9d8d'></circle>
        <text class="text_book" x="168" y="389">Жизнь взаймы</text>
        <text class="text_author" x="184" y="402">Э.М.Ремарк</text>
    </g>
    <!-- ///6 линия - сентиментальная -->


    <!-- 7 линия - социально-философская -->
    <path d="M44 140 H 455" stroke="#2b6e70" stroke-width="8" fill="transparent" />

    <g class="amado">
        <circle cx="44" cy="140" r="9" stroke="#fff" stroke-width="2" fill='#2b6e70'></circle>
        <text class="text_book" x="10" y="159">Капитаны</text>
        <text class="text_book" x="24" y="174">песка</text>
        <text class="text_author" x="19" y="187">Ж.Амаду</text>
    </g>

    <g class="salinger">
        <circle cx="170" cy="140" r="9" stroke="#fff" stroke-width="2" fill='#2b6e70'></circle>
        <text class="text_book" x="117" y="159">Над пропастью</text>
        <text class="text_book" x="145" y="174">во ржи</text>
        <text class="text_author" x="133" y="187">Д.Сэлинджер</text>
    </g>

    <g class="gilbert way-station">
        <circle cx="310" cy="140" r="9" stroke="#fff" stroke-width="2" fill='#fff'></circle>
        <path d="M310,139 v-7 a1,1 0 0,0 0,16 z" fill="#ff9d8d" stroke-width="0" />
        <path d="M310,139 v-7 a1,1 0 0,1 0,16 z" fill="#2b6e70" stroke-width="0" />
        <text class="text_book" x="322" y="159">Есть.</text>
        <text class="text_book" x="322" y="174">Молиться.</text>
        <text class="text_book" x="322" y="189">Любить.</text>
        <text class="text_author" x="322" y="202">Э.Гилберт</text>
    </g>

    <g class="sagan">
        <circle cx="455" cy="140" r="9" stroke="#fff" stroke-width="2" fill='#2b6e70'></circle>
        <text class="text_book" x="415" y="159">Здравствуй,</text>
        <text class="text_book" x="431" y="174">грусть!</text>
        <text class="text_author" x="433" y="187">Ф.Саган</text>
    </g>

    <!-- ///7 линия - социально-философская -->


    <!-- 8 линия - фантастическая -->
    <!-- x244 -->
    <path d="M400,230 H 80 Q44,230 44 285 V 310 Q44,355 80,355 H 117 Q153,355 153 390 V 405 Q153,440 188 440 H 295"
        stroke-width="8" stroke="#d25488" fill="transparent" />

    <g class="watts">
        <circle cx="295" cy="440" r="9" stroke="#fff" stroke-width="2" fill='#d25488'></circle>
        <text class="text_book" x="237" y="460">Ложная слепота</text>
        <text class="text_author" x="275" y="473">П.Уоттс</text>
    </g>
    <g class="simmons">
        <circle cx="185" cy="440" r="9" stroke="#fff" stroke-width="2" fill='#d25488'></circle>
        <text class="text_book" x="152" y="460">Гиперион</text>
        <text class="text_author" x="154" y="473">Д.Симмонс</text>
    </g>
    <g class="orwell">
        <circle cx="85" cy="355" r="9" stroke="#fff" stroke-width="2" fill='#d25488'></circle>
        <text class="text_book" x="83" y="376">1984</text>
        <text class="text_author" x="83" y="389">Дж.Оруэлл</text>
    </g>
    <g class="pelevin">
        <circle cx="44" cy="292" r="9" stroke="#fff" stroke-width="2" fill='#d25488'></circle>
        <text class="text_book" x="58" y="297">Подземное небо</text>
        <text class="text_author" x="58" y="310">В.О.Пелевин</text>
    </g>
    <g class="glukhovsky">
        <circle cx="107" cy="230" r="9" stroke="#fff" stroke-width="2" fill='#d25488'></circle>
        <text class="text_book" x="67" y="251">Метро 2033</text>
        <text class="text_author" x="65" y="264">Д.А.Глуховский</text>
    </g>
    <g class="eggers">
        <circle cx="185" cy="230" r="9" stroke="#fff" stroke-width="2" fill='#d25488'></circle>
        <text class="text_book" x="161" y="251">Сфера</text>
        <text class="text_author" x="160" y="264">Д.Эггерс</text>
    </g>
    <g class="sheckley">
        <circle cx="259" cy="230" r="9" stroke="#fff" stroke-width="2" fill='#d25488'></circle>
        <text class="text_book" x="217" y="251">Абсолютное</text>
        <text class="text_book" x="234" y="266">оружие</text>
        <text class="text_author" x="237" y="279">Р.Шекли</text>
    </g>
    <g class="strugatsky">
        <circle cx="400" cy="230" r="9" stroke="#fff" stroke-width="2" fill='#d25488'></circle>
        <text class="text_book" x="334" y="251">Трудно быть богом</text>
        <text class="text_author" x="360" y="264">Бр.Стругацкие</text>
    </g>


    <!-- ///8 линия - фантастическая -->



</svg>