<svg width="881" height="708" viewBox="0 0 881 708" fill="none" xmlns="http://www.w3.org/2000/svg">
<path d="M196.396 686.5L738.896 88L765.896 113L245.896 686.5H196.396Z" fill="#4A5280"/>
<path d="M639.794 472H605.343V400.876C605.343 361.733 646.284 348.584 666.755 346.903C689.888 347.575 742.945 348.517 770.105 346.903C797.266 345.288 809.049 320.336 811.545 308.062C811.878 249.885 812.344 125.763 811.545 94.6903C810.747 63.6177 783.586 51.1416 770.105 48.7876H497V16H770.105C829.619 16 844.165 68.4602 843.999 94.6903V308.062C837.608 357.697 799.396 378.85 781.089 383.221H666.755C649.979 383.221 641.791 394.991 639.794 400.876V472Z" fill="#ABCB87"/>
<path d="M467.896 16H503.396C482.896 243.5 442.396 301.5 412.396 351C382.396 400.5 321.896 462.5 265.896 514.5C221.096 556.1 121.562 607.5 77.3958 628L59.3958 595.5C187.896 551 263.396 479 362.896 364.5C442.496 272.9 466.062 94 467.896 16Z" fill="#54B199"/>
<path d="M3.89575 33.5V0H239.896C294.296 0 304.896 40 303.396 60V303.5C290.996 362.7 243.229 376.5 220.896 376V343C250.496 343 265.896 316.667 269.896 303.5C270.229 229.333 270.696 76.8 269.896 60C269.096 43.2 249.562 35.3333 239.896 33.5H3.89575Z" fill="#E59B91"/>
<path d="M3.89575 115V81.5H420.396V115H3.89575Z" fill="#436D6D"/>
<path d="M373.896 191.5V160H78.8958C26.4958 160 6.39575 203 2.89575 224.5V307C4.09575 338.6 33.3958 359.833 47.8958 366.5H130.396C149.596 366.5 154.396 379.5 154.396 386V405C157.196 424.2 177.562 435 187.396 438H278.396V405H204.396C189.196 405 186.729 392.333 187.396 386V371.5C183.396 344.7 144.396 333.333 125.396 331C116.729 331.333 93.5957 331.8 70.3958 331C47.1958 330.2 39.3958 314.667 38.3958 307V224.5C38.3958 202.5 65.3958 193.333 78.8958 191.5H373.896Z" fill="#C95985"/>
<path d="M380.896 675.5H329.896C363.562 640.667 439.296 561 472.896 521C506.496 481 574.896 471.667 604.896 472H880.396V505.5C813.062 506.333 663.696 507.5 604.896 505.5C546.096 503.5 510.729 530.333 500.396 544L380.896 675.5Z" fill="#EFBB5E"/>
<path d="M269.896 307V273.5H185.396C51.8957 301 8.39571 420.5 5.89571 436C3.39571 451.5 -15.6043 499.5 31.3957 601C68.9957 682.2 149.729 706.167 185.396 708H610.396V674.5C476.562 674.667 204.196 674.9 185.396 674.5C161.896 674 43.3956 641 35.8956 494.5C29.8956 377.3 136.729 320.667 190.896 307H269.896Z" fill="#994D57"/>
</svg>
