<svg width="901" height="728" viewBox="0 0 901 728" fill="none" xmlns="http://www.w3.org/2000/svg">
<g opacity="0.5">
<g filter="url(#filter0_f_483_15)">
<path d="M206.396 696.5L748.896 98L775.896 123L255.896 696.5H206.396Z" fill="#4A5280"/>
<path d="M649.794 482H615.343V410.876C615.343 371.733 656.284 358.584 676.755 356.903C699.888 357.575 752.945 358.517 780.105 356.903C807.266 355.288 819.049 330.336 821.545 318.062C821.878 259.885 822.344 135.763 821.545 104.69C820.747 73.6177 793.586 61.1416 780.105 58.7876H507V26H780.105C839.619 26 854.165 78.4602 853.999 104.69V318.062C847.608 367.697 809.396 388.85 791.089 393.221H676.755C659.979 393.221 651.791 404.991 649.794 410.876V482Z" fill="#ABCB87"/>
<path d="M477.896 26H513.396C492.896 253.5 452.396 311.5 422.396 361C392.396 410.5 331.896 472.5 275.896 524.5C231.096 566.1 131.562 617.5 87.3958 638L69.3958 605.5C197.896 561 273.396 489 372.896 374.5C452.496 282.9 476.062 104 477.896 26Z" fill="#54B199"/>
<path d="M13.8958 43.5V10H249.896C304.296 10 314.896 50 313.396 70V313.5C300.996 372.7 253.229 386.5 230.896 386V353C260.496 353 275.896 326.667 279.896 313.5C280.229 239.333 280.696 86.8 279.896 70C279.096 53.2 259.562 45.3333 249.896 43.5H13.8958Z" fill="#E59B91"/>
<path d="M13.8958 125V91.5H430.396V125H13.8958Z" fill="#436D6D"/>
<path d="M383.896 201.5V170H88.8958C36.4958 170 16.3958 213 12.8958 234.5V317C14.0958 348.6 43.3958 369.833 57.8958 376.5H140.396C159.596 376.5 164.396 389.5 164.396 396V415C167.196 434.2 187.562 445 197.396 448H288.396V415H214.396C199.196 415 196.729 402.333 197.396 396V381.5C193.396 354.7 154.396 343.333 135.396 341C126.729 341.333 103.596 341.8 80.3958 341C57.1958 340.2 49.3958 324.667 48.3958 317V234.5C48.3958 212.5 75.3958 203.333 88.8958 201.5H383.896Z" fill="#C95985"/>
<path d="M390.896 685.5H339.896C373.562 650.667 449.296 571 482.896 531C516.496 491 584.896 481.667 614.896 482H890.396V515.5C823.062 516.333 673.696 517.5 614.896 515.5C556.096 513.5 520.729 540.333 510.396 554L390.896 685.5Z" fill="#EFBB5E"/>
<path d="M279.896 317V283.5H195.396C61.8957 311 18.3957 430.5 15.8957 446C13.3957 461.5 -5.60429 509.5 41.3957 611C78.9957 692.2 159.729 716.167 195.396 718H620.396V684.5C486.562 684.667 214.196 684.9 195.396 684.5C171.896 684 53.3956 651 45.8956 504.5C39.8956 387.3 146.729 330.667 200.896 317H279.896Z" fill="#994D57"/>
</g>
</g>
<defs>
<filter id="filter0_f_483_15" x="0" y="0" width="900.396" height="728" filterUnits="userSpaceOnUse" color-interpolation-filters="sRGB">
<feFlood flood-opacity="0" result="BackgroundImageFix"/>
<feBlend mode="normal" in="SourceGraphic" in2="BackgroundImageFix" result="shape"/>
<feGaussianBlur stdDeviation="5" result="effect1_foregroundBlur_483_15"/>
</filter>
</defs>
</svg>
